<?xml version="1.0" encoding="UTF-8"?>
<!DOCTYPE svg PUBLIC "-//W3C//DTD SVG 1.1//EN" "http://www.w3.org/Graphics/SVG/1.1/DTD/svg11.dtd">
<svg xmlns="http://www.w3.org/2000/svg" version="1.1" width="140px" height="140px" style="shape-rendering:geometricPrecision; text-rendering:geometricPrecision; image-rendering:optimizeQuality; fill-rule:evenodd; clip-rule:evenodd" xmlns:xlink="http://www.w3.org/1999/xlink">
<g><path style="opacity:0.829" fill="#fefffe" d="M 30.5,3.5 C 41.415,3.17966 52.2483,3.51299 63,4.5C 64.0807,11.0544 63.414,17.3877 61,23.5C 59.8333,24.6667 58.6667,25.8333 57.5,27C 62.7999,28.0949 64.6333,31.2616 63,36.5C 61.3331,38.6278 59.1664,39.9611 56.5,40.5C 54.4739,44.5523 52.4739,48.5523 50.5,52.5C 50.5698,53.7716 50.9032,54.9383 51.5,56C 64.0345,57.5393 71.8678,64.3726 75,76.5C 80.8738,70.2951 85.5404,63.2951 89,55.5C 90.5793,53.9588 92.4127,52.7922 94.5,52C 103.5,51.3333 112.5,51.3333 121.5,52C 122.811,56.7464 121.477,60.7464 117.5,64C 112.663,65.0127 107.83,65.8461 103,66.5C 93.6667,80.5 84.3333,94.5 75,108.5C 74.6667,115.833 74.3333,123.167 74,130.5C 73.2155,132.286 72.0488,133.786 70.5,135C 49.5937,135.826 28.7603,135.66 8,134.5C 7.0461,113.449 7.37943,92.4489 9,71.5C 13.3602,62.0001 20.8602,57.0001 31.5,56.5C 31.8134,53.7531 31.48,51.0865 30.5,48.5C 28.3328,46.1698 26.6662,43.5032 25.5,40.5C 18.3657,38.5399 16.699,34.3733 20.5,28C 16.2112,16.6142 19.5445,8.4475 30.5,3.5 Z M 32.5,8.5 C 41.1667,8.5 49.8333,8.5 58.5,8.5C 59.1876,13.4141 58.0209,17.7474 55,21.5C 48.9271,19.6062 42.7605,17.9395 36.5,16.5C 33.0533,17.7229 29.7199,19.2229 26.5,21C 25.6357,26.4839 24.6357,26.6505 23.5,21.5C 23.8197,15.1606 26.8197,10.8272 32.5,8.5 Z M 35.5,22.5 C 40.8933,23.1817 46.2266,24.1817 51.5,25.5C 51.8507,31.2617 51.3507,36.9284 50,42.5C 42.3996,49.522 36.0662,48.522 31,39.5C 30.3333,34.8333 30.3333,30.1667 31,25.5C 32.6516,24.6006 34.1516,23.6006 35.5,22.5 Z M 23.5,32.5 C 25.337,32.6395 25.6704,33.3061 24.5,34.5C 23.7025,34.0431 23.3691,33.3764 23.5,32.5 Z M 56.5,32.5 C 58.337,32.6395 58.6704,33.3061 57.5,34.5C 56.7025,34.0431 56.3691,33.3764 56.5,32.5 Z M 37.5,52.5 C 39.8333,52.5 42.1667,52.5 44.5,52.5C 44.4332,54.4008 44.7665,56.2341 45.5,58C 44.392,60.1124 42.892,61.9458 41,63.5C 39.3149,61.9825 37.8149,60.3159 36.5,58.5C 37.3482,56.5914 37.6816,54.5914 37.5,52.5 Z M 96.5,56.5 C 103.175,56.3337 109.842,56.5004 116.5,57C 115.449,58.3848 114.116,59.3848 112.5,60C 105.833,60.6667 99.1667,60.6667 92.5,60C 93.7305,58.5952 95.0639,57.4286 96.5,56.5 Z M 30.5,61.5 C 33.2971,63.795 35.9638,66.295 38.5,69C 40.1667,69.6667 41.8333,69.6667 43.5,69C 46,66.5 48.5,64 51,61.5C 44.6505,77.4614 37.8171,77.4614 30.5,61.5 Z M 23.5,63.5 C 27.1834,67.0251 30.3501,71.0251 33,75.5C 32.4311,84.9047 31.4311,94.238 30,103.5C 33.3793,107.216 37.0459,110.549 41,113.5C 44.9541,110.549 48.6207,107.216 52,103.5C 51.2778,95.1584 50.1112,86.8251 48.5,78.5C 50.9907,73.1545 54.1574,68.1545 58,63.5C 67.4336,68.1338 71.4336,75.8004 70,86.5C 70.5613,87.0219 71.228,87.3552 72,87.5C 78.469,80.69 84.6356,73.5233 90.5,66C 92.8333,65.3333 95.1667,65.3333 97.5,66C 88.2096,79.4134 79.043,92.9134 70,106.5C 69.8014,114.216 69.3014,121.882 68.5,129.5C 54.5159,130.499 40.5159,130.833 26.5,130.5C 26.6665,120.828 26.4998,111.161 26,101.5C 25.5,101 25,100.5 24.5,100C 20.8484,99.5014 17.1817,99.3347 13.5,99.5C 13.0796,89.7529 13.5796,80.0862 15,70.5C 17.4412,67.5464 20.2745,65.2131 23.5,63.5 Z M 38.5,78.5 C 40.1667,78.5 41.8333,78.5 43.5,78.5C 43.5,79.8333 43.5,81.1667 43.5,82.5C 41.8333,82.5 40.1667,82.5 38.5,82.5C 38.5,81.1667 38.5,79.8333 38.5,78.5 Z M 37.5,87.5 C 40.3938,87.0423 42.8938,87.709 45,89.5C 48.2685,96.6936 46.9352,102.694 41,107.5C 39.3333,105.833 37.6667,104.167 36,102.5C 35.8397,97.4541 36.3397,92.4541 37.5,87.5 Z M 13.5,104.5 C 15.8333,104.5 18.1667,104.5 20.5,104.5C 20.5,113.167 20.5,121.833 20.5,130.5C 18.1667,130.5 15.8333,130.5 13.5,130.5C 13.5,121.833 13.5,113.167 13.5,104.5 Z"/></g>
<g><path style="opacity:0.811" fill="#fefffe" d="M 103.5,3.5 C 110.936,2.6002 114.603,5.93354 114.5,13.5C 123.792,17.4153 128.625,24.4153 129,34.5C 134.304,38.0338 134.804,42.2005 130.5,47C 115.568,48.6174 100.568,48.9507 85.5,48C 80.8553,45.9754 79.3553,42.4754 81,37.5C 82,36.5 83,35.5 84,34.5C 84.8831,24.7226 89.7165,17.7226 98.5,13.5C 99.1206,9.59204 100.787,6.2587 103.5,3.5 Z M 105.5,8.5 C 107.912,8.69408 108.912,10.0274 108.5,12.5C 104.814,12.87 103.814,11.5367 105.5,8.5 Z M 96.5,21.5 C 103.784,16.1462 111.118,16.3128 118.5,22C 121.702,25.5675 123.368,29.7341 123.5,34.5C 114.5,34.5 105.5,34.5 96.5,34.5C 97.0592,28.1059 100.559,24.4392 107,23.5C 107.494,21.8659 107.66,20.1992 107.5,18.5C 103.658,18.8925 99.9909,19.8925 96.5,21.5 Z M 94.5,23.5 C 92.5521,26.9287 91.0521,30.5953 90,34.5C 89.5401,29.9828 91.0401,26.3161 94.5,23.5 Z M 85.5,39.5 C 99.9906,39.0182 114.324,39.5182 128.5,41C 114.324,42.4818 99.9906,42.9818 85.5,42.5C 85.5,41.5 85.5,40.5 85.5,39.5 Z"/></g>
<g><path style="opacity:0.765" fill="#fefffe" d="M 34.5,27.5 C 36.1667,27.5 37.8333,27.5 39.5,27.5C 39.5,29.1667 39.5,30.8333 39.5,32.5C 37.8333,32.5 36.1667,32.5 34.5,32.5C 34.5,30.8333 34.5,29.1667 34.5,27.5 Z"/></g>
<g><path style="opacity:0.637" fill="#fefffe" d="M 42.5,27.5 C 44.5,27.5 46.5,27.5 48.5,27.5C 48.5,29.1667 48.5,30.8333 48.5,32.5C 46.5,32.5 44.5,32.5 42.5,32.5C 42.5,30.8333 42.5,29.1667 42.5,27.5 Z"/></g>
</svg>
