<?xml version="1.0" encoding="UTF-8"?>
<!DOCTYPE svg PUBLIC "-//W3C//DTD SVG 1.1//EN" "http://www.w3.org/Graphics/SVG/1.1/DTD/svg11.dtd">
<svg xmlns="http://www.w3.org/2000/svg" version="1.1" width="140px" height="140px" style="shape-rendering:geometricPrecision; text-rendering:geometricPrecision; image-rendering:optimizeQuality; fill-rule:evenodd; clip-rule:evenodd" xmlns:xlink="http://www.w3.org/1999/xlink">
<g><path style="opacity:0.846" fill="#fefffe" d="M 62.5,3.5 C 67.9586,3.10327 73.2919,3.60327 78.5,5C 79,5.5 79.5,6 80,6.5C 80.498,9.48162 80.6646,12.4816 80.5,15.5C 94.2449,20.0266 107.912,24.8599 121.5,30C 122.444,32.7191 122.777,35.5525 122.5,38.5C 133.783,36.7132 137.95,41.3799 135,52.5C 134.535,53.9308 133.701,55.0975 132.5,56C 129.183,56.4983 125.85,56.665 122.5,56.5C 122.667,67.1719 122.5,77.8385 122,88.5C 120.407,92.4279 117.573,94.9279 113.5,96C 84.1667,96.6667 54.8333,96.6667 25.5,96C 21.3197,94.9979 18.4864,92.4979 17,88.5C 16.5002,77.8385 16.3335,67.1719 16.5,56.5C 12.6924,56.8368 9.02572,56.3368 5.5,55C 2.83333,50 2.83333,45 5.5,40C 9.02572,38.6632 12.6924,38.1632 16.5,38.5C 16.2229,35.5525 16.5562,32.7191 17.5,30C 31.0885,24.8599 44.7551,20.0266 58.5,15.5C 58.3354,12.4816 58.502,9.48162 59,6.5C 60.1451,5.36362 61.3117,4.36362 62.5,3.5 Z M 64.5,8.5 C 67.8499,8.33499 71.1832,8.50166 74.5,9C 75.3366,10.0113 75.67,11.1779 75.5,12.5C 71.5,12.5 67.5,12.5 63.5,12.5C 63.4326,11.0413 63.7659,9.70792 64.5,8.5 Z M 65.5,17.5 C 68.1873,17.3359 70.854,17.5026 73.5,18C 83.4232,21.8634 93.4232,25.5301 103.5,29C 81.1667,29.6667 58.8333,29.6667 36.5,29C 46.3853,25.4333 56.052,21.6 65.5,17.5 Z M 21.5,34.5 C 53.5,34.5 85.5,34.5 117.5,34.5C 117.5,35.8333 117.5,37.1667 117.5,38.5C 85.5,38.5 53.5,38.5 21.5,38.5C 21.5,37.1667 21.5,35.8333 21.5,34.5 Z M 9.5,43.5 C 11.8333,43.5 14.1667,43.5 16.5,43.5C 16.5,46.1667 16.5,48.8333 16.5,51.5C 9.0817,53.0873 6.74837,50.4206 9.5,43.5 Z M 21.5,43.5 C 53.5,43.5 85.5,43.5 117.5,43.5C 117.667,57.8372 117.5,72.1705 117,86.5C 116.535,87.9308 115.701,89.0975 114.5,90C 84.5,90.6667 54.5,90.6667 24.5,90C 23.2986,89.0975 22.4652,87.9308 22,86.5C 21.5001,72.1705 21.3334,57.8372 21.5,43.5 Z M 122.5,43.5 C 129.659,41.8203 131.993,44.3203 129.5,51C 127.19,51.4966 124.857,51.6633 122.5,51.5C 122.5,48.8333 122.5,46.1667 122.5,43.5 Z"/></g>
<g><path style="opacity:0.799" fill="#fefffe" d="M 108.5,73.5 C 110.167,73.5 111.833,73.5 113.5,73.5C 115.955,83.9843 111.955,88.651 101.5,87.5C 101.5,85.8333 101.5,84.1667 101.5,82.5C 103.792,82.7564 105.959,82.4231 108,81.5C 108.497,78.854 108.664,76.1873 108.5,73.5 Z"/></g>
<g><path style="opacity:0.853" fill="#fefffe" d="M 41.5,99.5 C 45.2737,100.306 47.7737,102.639 49,106.5C 51.3091,110.423 50.8091,113.923 47.5,117C 50.5,117.667 53.5,117.667 56.5,117C 52.8315,113.081 52.6648,108.914 56,104.5C 57.0414,102.415 58.5414,100.748 60.5,99.5C 65.9407,103.051 68.1074,108.051 67,114.5C 66.1667,115.333 65.3333,116.167 64.5,117C 67.8333,117.667 71.1667,117.667 74.5,117C 71.6508,114.441 70.8175,111.274 72,107.5C 73.3084,104.208 75.3084,101.541 78,99.5C 82.9892,102.812 85.3225,107.478 85,113.5C 84.5348,114.931 83.7014,116.097 82.5,117C 85.5,117.667 88.5,117.667 91.5,117C 87.8315,113.081 87.6648,108.914 91,104.5C 92.0414,102.415 93.5414,100.748 95.5,99.5C 100.941,103.051 103.107,108.051 102,114.5C 98.9247,117.188 99.7581,118.188 104.5,117.5C 104.5,118.833 104.5,120.167 104.5,121.5C 106.5,121.5 108.5,121.5 110.5,121.5C 110.5,118.833 110.5,116.167 110.5,113.5C 109.167,113.5 107.833,113.5 106.5,113.5C 106.5,111.833 106.5,110.167 106.5,108.5C 109.5,108.5 112.5,108.5 115.5,108.5C 115.5,114.5 115.5,120.5 115.5,126.5C 111.833,126.5 108.167,126.5 104.5,126.5C 104.5,129.5 104.5,132.5 104.5,135.5C 81.1667,135.5 57.8333,135.5 34.5,135.5C 34.5,132.5 34.5,129.5 34.5,126.5C 30.8333,126.5 27.1667,126.5 23.5,126.5C 23.5,120.5 23.5,114.5 23.5,108.5C 26.5,108.5 29.5,108.5 32.5,108.5C 32.5,110.167 32.5,111.833 32.5,113.5C 31.1667,113.5 29.8333,113.5 28.5,113.5C 28.5,116.167 28.5,118.833 28.5,121.5C 30.5,121.5 32.5,121.5 34.5,121.5C 34.5,120.167 34.5,118.833 34.5,117.5C 39.2419,118.188 40.0753,117.188 37,114.5C 36.1757,108.812 37.6757,103.812 41.5,99.5 Z M 42.5,107.5 C 44.2132,108.635 44.8799,110.302 44.5,112.5C 43.5,112.5 42.5,112.5 41.5,112.5C 41.6287,110.784 41.962,109.117 42.5,107.5 Z M 60.5,107.5 C 61.9313,108.78 62.5979,110.447 62.5,112.5C 61.5,112.5 60.5,112.5 59.5,112.5C 59.366,110.708 59.6993,109.042 60.5,107.5 Z M 77.5,107.5 C 79.2132,108.635 79.8799,110.302 79.5,112.5C 78.5,112.5 77.5,112.5 76.5,112.5C 76.6287,110.784 76.962,109.117 77.5,107.5 Z M 95.5,107.5 C 96.9313,108.78 97.5979,110.447 97.5,112.5C 96.5,112.5 95.5,112.5 94.5,112.5C 94.366,110.708 94.6993,109.042 95.5,107.5 Z M 39.5,122.5 C 59.5,122.5 79.5,122.5 99.5,122.5C 99.5,125.167 99.5,127.833 99.5,130.5C 79.5,130.5 59.5,130.5 39.5,130.5C 39.5,127.833 39.5,125.167 39.5,122.5 Z"/></g>
</svg>
