<?xml version="1.0" encoding="UTF-8"?>
<!DOCTYPE svg PUBLIC "-//W3C//DTD SVG 1.1//EN" "http://www.w3.org/Graphics/SVG/1.1/DTD/svg11.dtd">
<svg xmlns="http://www.w3.org/2000/svg" version="1.1" width="140px" height="140px" style="shape-rendering:geometricPrecision; text-rendering:geometricPrecision; image-rendering:optimizeQuality; fill-rule:evenodd; clip-rule:evenodd" xmlns:xlink="http://www.w3.org/1999/xlink">
<g><path style="opacity:0.797" fill="#fefffe" d="M 50.5,3.5 C 53.5,3.16667 54.8333,4.5 54.5,7.5C 58.35,7.70072 59.35,9.53406 57.5,13C 56.552,13.4828 55.552,13.6495 54.5,13.5C 54.6499,17.1612 53.1499,18.1612 50,16.5C 49.5172,15.552 49.3505,14.552 49.5,13.5C 45.65,13.2993 44.65,11.4659 46.5,8C 47.448,7.51722 48.448,7.35055 49.5,7.5C 49.4326,6.04125 49.7659,4.70792 50.5,3.5 Z"/></g>
<g><path style="opacity:0.797" fill="#fefffe" d="M 85.5,3.5 C 88.5,3.16667 89.8333,4.5 89.5,7.5C 93.35,7.70072 94.35,9.53406 92.5,13C 91.552,13.4828 90.552,13.6495 89.5,13.5C 89.6499,17.1612 88.1499,18.1612 85,16.5C 84.5172,15.552 84.3505,14.552 84.5,13.5C 80.65,13.2993 79.65,11.4659 81.5,8C 82.448,7.51722 83.448,7.35055 84.5,7.5C 84.4326,6.04125 84.7659,4.70792 85.5,3.5 Z"/></g>
<g><path style="opacity:0.833" fill="#fefffe" d="M 101.5,9.5 C 103.759,10.344 104.759,12.0107 104.5,14.5C 108.676,13.8307 110.009,15.3307 108.5,19C 107.207,19.49 105.873,19.6567 104.5,19.5C 104.5,20.8333 104.5,22.1667 104.5,23.5C 101.05,24.2436 99.3838,22.9103 99.5,19.5C 95.8388,19.6499 94.8388,18.1499 96.5,15C 97.448,14.5172 98.448,14.3505 99.5,14.5C 99.3915,12.4862 100.058,10.8195 101.5,9.5 Z"/></g>
<g><path style="opacity:0.839" fill="#fefffe" d="M 34.5,10.5 C 37.9496,9.75635 39.6162,11.0897 39.5,14.5C 43.1612,14.3501 44.1612,15.8501 42.5,19C 41.552,19.4828 40.552,19.6495 39.5,19.5C 39.6162,22.9103 37.9496,24.2436 34.5,23.5C 34.5,22.1667 34.5,20.8333 34.5,19.5C 30.3241,20.1693 28.9907,18.6693 30.5,15C 31.7932,14.51 33.1266,14.3433 34.5,14.5C 34.5,13.1667 34.5,11.8333 34.5,10.5 Z"/></g>
<g><path style="opacity:0.818" fill="#fefffe" d="M 13.5,18.5 C 14.8221,18.33 15.9887,18.6634 17,19.5C 17.4997,27.1594 17.6664,34.8261 17.5,42.5C 18.5,42.5 19.5,42.5 20.5,42.5C 20.3337,35.825 20.5004,29.1583 21,22.5C 22.6667,19.8333 24.3333,19.8333 26,22.5C 26.3333,30.1667 26.6667,37.8333 27,45.5C 41.5488,23.8715 61.3821,16.7048 86.5,24C 114.541,37.767 123.708,59.6003 114,89.5C 101.256,113.12 81.7558,121.954 55.5,116C 33.8055,108.134 22.1388,92.634 20.5,69.5C 21.2593,62.989 22.426,56.6557 24,50.5C 22.172,52.0814 20.172,53.4147 18,54.5C 17.1674,66.5139 17.3341,78.5139 18.5,90.5C 19.1667,90.8333 19.8333,91.1667 20.5,91.5C 21.666,104.821 21.8327,118.154 21,131.5C 18.8387,135.124 15.672,136.291 11.5,135C 9.95118,133.786 8.78451,132.286 8,130.5C 7.33333,117.833 7.33333,105.167 8,92.5C 9.10963,90.9632 10.6096,90.2965 12.5,90.5C 12.8323,78.4815 12.499,66.4815 11.5,54.5C 8.19456,53.0278 5.69456,50.6945 4,47.5C 3.16814,38.8142 3.33481,30.1475 4.5,21.5C 5.5,20.1667 6.5,20.1667 7.5,21.5C 8.497,28.4684 8.83033,35.4684 8.5,42.5C 9.83333,42.5 11.1667,42.5 12.5,42.5C 12.1995,34.4144 12.5328,26.4144 13.5,18.5 Z M 92.5,33.5 C 80.3697,27.252 67.703,25.9187 54.5,29.5C 65.4125,25.446 76.4125,25.6127 87.5,30C 89.5844,30.6972 91.2511,31.8639 92.5,33.5 Z M 54.5,29.5 C 52.8185,31.0075 50.8185,32.0075 48.5,32.5C 49.911,30.461 51.911,29.461 54.5,29.5 Z M 65.5,32.5 C 89.6001,33.2665 103.267,45.5999 106.5,69.5C 103.843,91.4908 91.5092,103.824 69.5,106.5C 47.5092,103.843 35.1759,91.5092 32.5,69.5C 34.7654,49.241 45.7654,36.9076 65.5,32.5 Z M 46.5,33.5 C 45.7377,35.2624 44.4044,36.2624 42.5,36.5C 43.2623,34.7376 44.5956,33.7376 46.5,33.5 Z M 92.5,33.5 C 94.4044,33.7376 95.7377,34.7376 96.5,36.5C 94.5956,36.2624 93.2623,35.2624 92.5,33.5 Z M 96.5,36.5 C 99.1667,37.1667 100.833,38.8333 101.5,41.5C 99.5,40.1667 97.8333,38.5 96.5,36.5 Z M 41.5,37.5 C 40.5,39.1667 39.1667,40.5 37.5,41.5C 37.8333,39.1667 39.1667,37.8333 41.5,37.5 Z M 36.5,42.5 C 36.2624,44.4044 35.2624,45.7377 33.5,46.5C 33.7376,44.5956 34.7376,43.2623 36.5,42.5 Z M 102.5,42.5 C 104.262,43.2623 105.262,44.5956 105.5,46.5C 103.738,45.7377 102.738,44.4044 102.5,42.5 Z M 33.5,46.5 C 27.252,58.6303 25.9187,71.297 29.5,84.5C 25.446,73.5875 25.6127,62.5875 30,51.5C 30.6972,49.4156 31.8639,47.7489 33.5,46.5 Z M 54.5,47.5 C 60.5206,47.6771 64.8539,50.5104 67.5,56C 68.1667,56.1667 68.8333,56.3333 69.5,56.5C 71.9125,54.6108 74.2459,52.4442 76.5,50C 85.282,45.9309 90.9487,48.5976 93.5,58C 92.8629,60.245 92.0296,62.4117 91,64.5C 84,72.8333 77,81.1667 70,89.5C 61.622,81.0577 53.9553,72.0577 47,62.5C 44.7173,55.0653 47.2173,50.0653 54.5,47.5 Z M 106.5,48.5 C 108.837,50.9647 110.337,53.9647 111,57.5C 113,65.5 113,73.5 111,81.5C 110.19,85.7869 108.357,89.4536 105.5,92.5C 113.06,77.9919 113.394,63.3253 106.5,48.5 Z M 29.5,84.5 C 31.0075,86.1815 32.0075,88.1815 32.5,90.5C 30.461,89.089 29.461,87.089 29.5,84.5 Z M 33.5,92.5 C 35.2624,93.2623 36.2624,94.5956 36.5,96.5C 34.7376,95.7377 33.7376,94.4044 33.5,92.5 Z M 105.5,92.5 C 105.262,94.4044 104.262,95.7377 102.5,96.5C 102.738,94.5956 103.738,93.2623 105.5,92.5 Z M 13.5,96.5 C 14.5,96.5 15.5,96.5 16.5,96.5C 16.6665,107.505 16.4998,118.505 16,129.5C 15.586,129.957 15.086,130.291 14.5,130.5C 13.5012,119.186 13.1678,107.853 13.5,96.5 Z M 37.5,97.5 C 39.5,98.8333 41.1667,100.5 42.5,102.5C 39.8333,101.833 38.1667,100.167 37.5,97.5 Z M 101.5,97.5 C 101.167,99.8333 99.8333,101.167 97.5,101.5C 98.5,99.8333 99.8333,98.5 101.5,97.5 Z M 42.5,102.5 C 44.4044,102.738 45.7377,103.738 46.5,105.5C 44.5956,105.262 43.2623,104.262 42.5,102.5 Z M 96.5,102.5 C 95.7377,104.262 94.4044,105.262 92.5,105.5C 93.2623,103.738 94.5956,102.738 96.5,102.5 Z M 46.5,105.5 C 58.6303,111.748 71.297,113.081 84.5,109.5C 73.5875,113.554 62.5875,113.387 51.5,109C 49.4156,108.303 47.7489,107.136 46.5,105.5 Z M 90.5,106.5 C 89.089,108.539 87.089,109.539 84.5,109.5C 86.1815,107.992 88.1815,106.992 90.5,106.5 Z"/></g>
<g><path style="opacity:0.81" fill="#fefffe" d="M 92.5,33.5 C 93.2623,35.2624 94.5956,36.2624 96.5,36.5C 97.8333,38.5 99.5,40.1667 101.5,41.5C 101.5,42.1667 101.833,42.5 102.5,42.5C 102.738,44.4044 103.738,45.7377 105.5,46.5C 105.328,47.4916 105.662,48.1583 106.5,48.5C 113.394,63.3253 113.06,77.9919 105.5,92.5C 103.738,93.2623 102.738,94.5956 102.5,96.5C 101.833,96.5 101.5,96.8333 101.5,97.5C 99.8333,98.5 98.5,99.8333 97.5,101.5C 96.8333,101.5 96.5,101.833 96.5,102.5C 94.5956,102.738 93.2623,103.738 92.5,105.5C 91.5084,105.328 90.8417,105.662 90.5,106.5C 88.1815,106.992 86.1815,107.992 84.5,109.5C 71.297,113.081 58.6303,111.748 46.5,105.5C 45.7377,103.738 44.4044,102.738 42.5,102.5C 41.1667,100.5 39.5,98.8333 37.5,97.5C 37.5,96.8333 37.1667,96.5 36.5,96.5C 36.2624,94.5956 35.2624,93.2623 33.5,92.5C 33.6716,91.5084 33.3382,90.8417 32.5,90.5C 32.0075,88.1815 31.0075,86.1815 29.5,84.5C 25.9187,71.297 27.252,58.6303 33.5,46.5C 35.2624,45.7377 36.2624,44.4044 36.5,42.5C 37.1667,42.5 37.5,42.1667 37.5,41.5C 39.1667,40.5 40.5,39.1667 41.5,37.5C 42.1667,37.5 42.5,37.1667 42.5,36.5C 44.4044,36.2624 45.7377,35.2624 46.5,33.5C 47.4916,33.6716 48.1583,33.3382 48.5,32.5C 50.8185,32.0075 52.8185,31.0075 54.5,29.5C 67.703,25.9187 80.3697,27.252 92.5,33.5 Z M 65.5,32.5 C 45.7654,36.9076 34.7654,49.241 32.5,69.5C 35.1759,91.5092 47.5092,103.843 69.5,106.5C 91.5092,103.824 103.843,91.4908 106.5,69.5C 103.267,45.5999 89.6001,33.2665 65.5,32.5 Z M 54.5,47.5 C 47.2173,50.0653 44.7173,55.0653 47,62.5C 53.9553,72.0577 61.622,81.0577 70,89.5C 77,81.1667 84,72.8333 91,64.5C 92.0296,62.4117 92.8629,60.245 93.5,58C 90.9487,48.5976 85.282,45.9309 76.5,50C 74.2459,52.4442 71.9125,54.6108 69.5,56.5C 68.8333,56.3333 68.1667,56.1667 67.5,56C 64.8539,50.5104 60.5206,47.6771 54.5,47.5 Z"/></g>
<g><path style="opacity:0.838" fill="#fefffe" d="M 120.5,27.5 C 127.268,27.4437 132.102,30.4437 135,36.5C 135.667,56.1667 135.667,75.8333 135,95.5C 133.989,96.3366 132.822,96.67 131.5,96.5C 131.667,108.171 131.5,119.838 131,131.5C 127.829,136.414 124.163,136.747 120,132.5C 119.174,97.4286 119.341,62.4286 120.5,27.5 Z M 124.5,33.5 C 127.518,34.3534 129.351,36.3534 130,39.5C 130.5,56.4967 130.667,73.4967 130.5,90.5C 128.5,90.5 126.5,90.5 124.5,90.5C 124.5,71.5 124.5,52.5 124.5,33.5 Z"/></g>
<g><path style="opacity:0.814" fill="#fefffe" d="M 52.5,42.5 C 59.0259,42.1194 64.6925,44.1194 69.5,48.5C 79.7975,39.7105 88.9642,40.7105 97,51.5C 99.1218,56.6524 98.7885,61.6524 96,66.5C 87.7141,76.2411 79.5475,86.0744 71.5,96C 69.5355,96.624 67.8689,96.124 66.5,94.5C 58.1442,84.6452 49.9775,74.6452 42,64.5C 38.8062,53.8896 42.3062,46.5563 52.5,42.5 Z M 54.5,47.5 C 47.2173,50.0653 44.7173,55.0653 47,62.5C 53.9553,72.0577 61.622,81.0577 70,89.5C 77,81.1667 84,72.8333 91,64.5C 92.0296,62.4117 92.8629,60.245 93.5,58C 90.9487,48.5976 85.282,45.9309 76.5,50C 74.2459,52.4442 71.9125,54.6108 69.5,56.5C 68.8333,56.3333 68.1667,56.1667 67.5,56C 64.8539,50.5104 60.5206,47.6771 54.5,47.5 Z"/></g>
</svg>
