<svg xmlns="http://www.w3.org/2000/svg" xmlns:v="https://svgstorm.com"
viewBox = "0 0 140 141"
width="140"
height="141">
<g fill="None" fill-opacity="0.0" stroke="#000000" stroke-opacity="0.00" stroke-width="0.3"><path d="
M 0.00 141.00 
L 13.00 141.00
C -0.63 130.03 9.27 111.76 6.00 96.00 C 2.73 80.24 12.76 65.98 13.00 51.00
C 5.80 47.62 7.65 32.31 14.00 28.00
C 8.40 24.04 10.94 13.91 18.00 14.00
C 13.38 -1.41 27.79 0.89 38.00 1.00 C 48.21 1.11 63.81 -1.96 59.00 14.00
C 66.03 14.45 68.14 23.71 63.00 28.00
C 69.35 32.34 71.22 47.62 64.00 51.00
C 64.08 65.94 73.17 80.34 70.00 96.00 C 66.83 111.66 76.30 129.65 64.00 141.00
L 85.00 141.00
C 74.36 132.61 77.84 118.60 76.22 105.78 C 74.60 92.96 75.46 77.05 74.00 64.00
C 94.00 64.00 114.00 64.00 134.00 64.00
C 132.32 76.94 132.82 92.27 131.00 105.00 C 129.18 117.73 134.05 132.63 123.00 141.00
L 140.00 141.00
L 140.00 0.00
L 0.00 0.00
L 0.00 141.00 Z"/>
</g>
<g fill="None" fill-opacity="0.0" stroke="#FFFFFF" stroke-opacity="0.84" stroke-width="0.3"><path d="
M 13.00 141.00 
L 64.00 141.00
C 76.30 129.65 66.83 111.66 70.00 96.00 C 73.17 80.34 64.08 65.94 64.00 51.00
C 71.22 47.62 69.35 32.34 63.00 28.00
C 68.14 23.71 66.03 14.45 59.00 14.00
C 63.81 -1.96 48.21 1.11 38.00 1.00 C 27.79 0.89 13.38 -1.41 18.00 14.00
C 10.94 13.91 8.40 24.04 14.00 28.00
C 7.65 32.31 5.80 47.62 13.00 51.00
C 12.76 65.98 2.73 80.24 6.00 96.00 C 9.27 111.76 -0.63 130.03 13.00 141.00
M 54.00 6.00 
C 56.67 14.96 49.61 14.36 43.00 14.00 C 36.39 13.64 29.62 14.27 23.00 14.00
C 20.33 5.04 27.39 5.64 34.00 6.00 C 40.61 6.36 47.38 5.73 54.00 6.00
M 60.00 20.00 
C 57.24 25.68 45.96 22.47 39.00 23.00 C 32.04 23.53 22.68 23.41 16.00 22.00
C 28.81 17.37 45.65 21.31 60.00 20.00
M 63.00 46.00 
C 51.00 46.00 39.00 46.00 27.00 46.00
C 25.52 53.75 34.69 50.53 40.00 51.00 C 45.31 51.47 52.52 50.64 58.00 51.00
C 56.58 59.21 60.04 66.04 63.00 73.00
C 60.00 73.00 57.00 73.00 54.00 73.00
C 51.90 80.39 60.71 77.45 65.00 78.00
C 67.22 94.64 62.04 102.47 65.00 120.00 C 67.96 137.53 53.29 136.36 39.00 136.00 C 24.71 135.65 9.42 138.71 12.00 121.00 C 14.58 103.29 10.06 94.86 12.00 78.00
C 24.67 78.00 37.33 78.00 50.00 78.00
C 50.98 69.85 41.07 73.60 35.00 73.00 C 28.93 72.40 20.31 73.45 14.00 73.00
C 16.99 66.09 19.96 59.08 19.00 51.00
C 22.78 52.24 23.54 49.02 23.00 46.00
C 20.00 46.00 17.00 46.00 14.00 46.00
C 9.97 28.63 25.97 29.01 38.00 29.00 C 50.03 28.99 67.06 28.18 63.00 46.00 Z"/>
</g>
<g fill="None" fill-opacity="0.0" stroke="#000000" stroke-opacity="0.00" stroke-width="0.3"><path d="
M 54.00 6.00 
C 47.38 5.73 40.61 6.36 34.00 6.00 C 27.39 5.64 20.33 5.04 23.00 14.00
C 29.62 14.27 36.39 13.64 43.00 14.00 C 49.61 14.36 56.67 14.96 54.00 6.00 Z"/>
</g>
<g fill="None" fill-opacity="0.0" stroke="#000000" stroke-opacity="0.00" stroke-width="0.3"><path d="
M 60.00 20.00 
C 45.65 21.31 28.81 17.37 16.00 22.00
C 22.68 23.41 32.04 23.53 39.00 23.00 C 45.96 22.47 57.24 25.68 60.00 20.00 Z"/>
</g>
<g fill="None" fill-opacity="0.0" stroke="#000000" stroke-opacity="0.00" stroke-width="0.3"><path d="
M 63.00 46.00 
C 67.06 28.18 50.03 28.99 38.00 29.00 C 25.97 29.01 9.97 28.63 14.00 46.00
C 17.00 46.00 20.00 46.00 23.00 46.00
C 23.54 49.02 22.78 52.24 19.00 51.00
C 19.96 59.08 16.99 66.09 14.00 73.00
C 20.31 73.45 28.93 72.40 35.00 73.00 C 41.07 73.60 50.98 69.85 50.00 78.00
C 37.33 78.00 24.67 78.00 12.00 78.00
C 10.06 94.86 14.58 103.29 12.00 121.00 C 9.42 138.71 24.71 135.65 39.00 136.00 C 53.29 136.36 67.96 137.53 65.00 120.00 C 62.04 102.47 67.22 94.64 65.00 78.00
C 60.71 77.45 51.90 80.39 54.00 73.00
C 57.00 73.00 60.00 73.00 63.00 73.00
C 60.04 66.04 56.58 59.21 58.00 51.00
C 52.52 50.64 45.31 51.47 40.00 51.00 C 34.69 50.53 25.52 53.75 27.00 46.00
C 39.00 46.00 51.00 46.00 63.00 46.00
M 43.00 84.00 
C 72.15 89.22 62.54 136.60 33.33 129.67 C 4.12 122.74 14.23 78.85 43.00 84.00 Z"/>
</g>
<g fill="None" fill-opacity="0.0" stroke="#FFFFFF" stroke-opacity="0.85" stroke-width="0.3"><path d="
M 85.00 141.00 
L 123.00 141.00
C 134.05 132.63 129.18 117.73 131.00 105.00 C 132.82 92.27 132.32 76.94 134.00 64.00
C 114.00 64.00 94.00 64.00 74.00 64.00
C 75.46 77.05 74.60 92.96 76.22 105.78 C 77.84 118.60 74.36 132.61 85.00 141.00
M 128.00 69.00 
C 128.35 77.16 126.24 84.72 127.00 93.00
C 121.82 93.26 123.04 87.57 123.00 84.00
C 117.67 82.26 117.51 87.08 118.00 91.00
C 106.29 86.29 93.11 84.52 81.00 89.00
C 80.58 82.37 79.48 75.87 80.00 69.00
C 96.00 69.00 112.00 69.00 128.00 69.00
M 117.00 96.00 
C 116.96 107.49 116.13 118.77 115.00 130.00
C 123.82 132.14 120.23 122.29 121.78 116.78 C 123.33 111.26 120.67 103.41 123.00 98.00
C 129.26 100.54 124.63 112.60 125.00 119.00 C 125.37 125.40 125.74 136.06 116.99 135.99 C 108.25 135.93 100.11 136.02 91.00 136.00 C 81.89 135.98 83.43 126.13 83.00 119.00 C 82.57 111.87 81.73 102.31 81.00 95.00
C 92.47 89.95 105.65 92.03 117.00 96.00 Z"/>
</g>
<g fill="None" fill-opacity="0.0" stroke="#000000" stroke-opacity="0.00" stroke-width="0.3"><path d="
M 128.00 69.00 
C 112.00 69.00 96.00 69.00 80.00 69.00
C 79.48 75.87 80.58 82.37 81.00 89.00
C 93.11 84.52 106.29 86.29 118.00 91.00
C 117.51 87.08 117.67 82.26 123.00 84.00
C 123.04 87.57 121.82 93.26 127.00 93.00
C 126.24 84.72 128.35 77.16 128.00 69.00
M 124.00 81.00 
C 111.24 81.59 126.02 68.02 124.00 81.00 Z"/>
</g>
<g fill="None" fill-opacity="0.0" stroke="#FFFFFF" stroke-opacity="0.68" stroke-width="0.3"><path d="
M 124.00 81.00 
C 126.02 68.02 111.24 81.59 124.00 81.00 Z"/>
</g>
<g fill="None" fill-opacity="0.0" stroke="#FFFFFF" stroke-opacity="0.82" stroke-width="0.3"><path d="
M 43.00 84.00 
C 14.23 78.85 4.12 122.74 33.33 129.67 C 62.54 136.60 72.15 89.22 43.00 84.00
M 44.00 90.00 
C 64.64 95.11 55.56 130.91 33.98 124.02 C 12.39 117.14 20.73 84.24 44.00 90.00 Z"/>
</g>
<g fill="None" fill-opacity="0.0" stroke="#000000" stroke-opacity="0.00" stroke-width="0.3"><path d="
M 44.00 90.00 
C 20.73 84.24 12.39 117.14 33.98 124.02 C 55.56 130.91 64.64 95.11 44.00 90.00
M 39.00 94.00 
C 46.97 99.57 53.11 119.24 37.99 118.99 C 22.88 118.74 30.34 98.00 39.00 94.00 Z"/>
</g>
<g fill="None" fill-opacity="0.0" stroke="#000000" stroke-opacity="0.00" stroke-width="0.3"><path d="
M 117.00 96.00 
C 105.65 92.03 92.47 89.95 81.00 95.00
C 81.73 102.31 82.57 111.87 83.00 119.00 C 83.43 126.13 81.89 135.98 91.00 136.00 C 100.11 136.02 108.25 135.93 116.99 135.99 C 125.74 136.06 125.37 125.40 125.00 119.00 C 124.63 112.60 129.26 100.54 123.00 98.00
C 120.67 103.41 123.33 111.26 121.78 116.78 C 120.23 122.29 123.82 132.14 115.00 130.00
C 116.13 118.77 116.96 107.49 117.00 96.00 Z"/>
</g>
<g fill="None" fill-opacity="0.0" stroke="#FFFFFF" stroke-opacity="0.81" stroke-width="0.3"><path d="
M 39.00 94.00 
C 30.34 98.00 22.88 118.74 37.99 118.99 C 53.11 119.24 46.97 99.57 39.00 94.00
M 39.00 103.00 
C 42.77 105.79 43.18 114.87 37.00 113.00 C 30.81 111.12 36.36 104.59 39.00 103.00 Z"/>
</g>
<g fill="None" fill-opacity="0.0" stroke="#000000" stroke-opacity="0.00" stroke-width="0.3"><path d="
M 39.00 103.00 
C 36.36 104.59 30.81 111.12 37.00 113.00 C 43.18 114.87 42.77 105.79 39.00 103.00 Z"/>
</g>
<g fill="#000000" fill-opacity="0.00" stroke="None">
<path d="
M 0.00 141.00 
L 13.00 141.00
C -0.63 130.03 9.27 111.76 6.00 96.00 C 2.73 80.24 12.76 65.98 13.00 51.00
C 5.80 47.62 7.65 32.31 14.00 28.00
C 8.40 24.04 10.94 13.91 18.00 14.00
C 13.38 -1.41 27.79 0.89 38.00 1.00 C 48.21 1.11 63.81 -1.96 59.00 14.00
C 66.03 14.45 68.14 23.71 63.00 28.00
C 69.35 32.34 71.22 47.62 64.00 51.00
C 64.08 65.94 73.17 80.34 70.00 96.00 C 66.83 111.66 76.30 129.65 64.00 141.00
L 85.00 141.00
C 74.36 132.61 77.84 118.60 76.22 105.78 C 74.60 92.96 75.46 77.05 74.00 64.00
C 94.00 64.00 114.00 64.00 134.00 64.00
C 132.32 76.94 132.82 92.27 131.00 105.00 C 129.18 117.73 134.05 132.63 123.00 141.00
L 140.00 141.00
L 140.00 0.00
L 0.00 0.00
L 0.00 141.00 Z"/>
</g>
<g fill="#FFFFFF" fill-opacity="0.84" stroke="None">
<path d="
M 13.00 141.00 
L 64.00 141.00
C 76.30 129.65 66.83 111.66 70.00 96.00 C 73.17 80.34 64.08 65.94 64.00 51.00
C 71.22 47.62 69.35 32.34 63.00 28.00
C 68.14 23.71 66.03 14.45 59.00 14.00
C 63.81 -1.96 48.21 1.11 38.00 1.00 C 27.79 0.89 13.38 -1.41 18.00 14.00
C 10.94 13.91 8.40 24.04 14.00 28.00
C 7.65 32.31 5.80 47.62 13.00 51.00
C 12.76 65.98 2.73 80.24 6.00 96.00 C 9.27 111.76 -0.63 130.03 13.00 141.00
M 54.00 6.00 
C 56.67 14.96 49.61 14.36 43.00 14.00 C 36.39 13.64 29.62 14.27 23.00 14.00
C 20.33 5.04 27.39 5.64 34.00 6.00 C 40.61 6.36 47.38 5.73 54.00 6.00
M 60.00 20.00 
C 57.24 25.68 45.96 22.47 39.00 23.00 C 32.04 23.53 22.68 23.41 16.00 22.00
C 28.81 17.37 45.65 21.31 60.00 20.00
M 63.00 46.00 
C 51.00 46.00 39.00 46.00 27.00 46.00
C 25.52 53.75 34.69 50.53 40.00 51.00 C 45.31 51.47 52.52 50.64 58.00 51.00
C 56.58 59.21 60.04 66.04 63.00 73.00
C 60.00 73.00 57.00 73.00 54.00 73.00
C 51.90 80.39 60.71 77.45 65.00 78.00
C 67.22 94.64 62.04 102.47 65.00 120.00 C 67.96 137.53 53.29 136.36 39.00 136.00 C 24.71 135.65 9.42 138.71 12.00 121.00 C 14.58 103.29 10.06 94.86 12.00 78.00
C 24.67 78.00 37.33 78.00 50.00 78.00
C 50.98 69.85 41.07 73.60 35.00 73.00 C 28.93 72.40 20.31 73.45 14.00 73.00
C 16.99 66.09 19.96 59.08 19.00 51.00
C 22.78 52.24 23.54 49.02 23.00 46.00
C 20.00 46.00 17.00 46.00 14.00 46.00
C 9.97 28.63 25.97 29.01 38.00 29.00 C 50.03 28.99 67.06 28.18 63.00 46.00 Z"/>
</g>
<g fill="#000000" fill-opacity="0.00" stroke="None">
<path d="
M 54.00 6.00 
C 47.38 5.73 40.61 6.36 34.00 6.00 C 27.39 5.64 20.33 5.04 23.00 14.00
C 29.62 14.27 36.39 13.64 43.00 14.00 C 49.61 14.36 56.67 14.96 54.00 6.00 Z"/>
</g>
<g fill="#000000" fill-opacity="0.00" stroke="None">
<path d="
M 60.00 20.00 
C 45.65 21.31 28.81 17.37 16.00 22.00
C 22.68 23.41 32.04 23.53 39.00 23.00 C 45.96 22.47 57.24 25.68 60.00 20.00 Z"/>
</g>
<g fill="#000000" fill-opacity="0.00" stroke="None">
<path d="
M 63.00 46.00 
C 67.06 28.18 50.03 28.99 38.00 29.00 C 25.97 29.01 9.97 28.63 14.00 46.00
C 17.00 46.00 20.00 46.00 23.00 46.00
C 23.54 49.02 22.78 52.24 19.00 51.00
C 19.96 59.08 16.99 66.09 14.00 73.00
C 20.31 73.45 28.93 72.40 35.00 73.00 C 41.07 73.60 50.98 69.85 50.00 78.00
C 37.33 78.00 24.67 78.00 12.00 78.00
C 10.06 94.86 14.58 103.29 12.00 121.00 C 9.42 138.71 24.71 135.65 39.00 136.00 C 53.29 136.36 67.96 137.53 65.00 120.00 C 62.04 102.47 67.22 94.64 65.00 78.00
C 60.71 77.45 51.90 80.39 54.00 73.00
C 57.00 73.00 60.00 73.00 63.00 73.00
C 60.04 66.04 56.58 59.21 58.00 51.00
C 52.52 50.64 45.31 51.47 40.00 51.00 C 34.69 50.53 25.52 53.75 27.00 46.00
C 39.00 46.00 51.00 46.00 63.00 46.00
M 43.00 84.00 
C 72.15 89.22 62.54 136.60 33.33 129.67 C 4.12 122.74 14.23 78.85 43.00 84.00 Z"/>
</g>
<g fill="#FFFFFF" fill-opacity="0.85" stroke="None">
<path d="
M 85.00 141.00 
L 123.00 141.00
C 134.05 132.63 129.18 117.73 131.00 105.00 C 132.82 92.27 132.32 76.94 134.00 64.00
C 114.00 64.00 94.00 64.00 74.00 64.00
C 75.46 77.05 74.60 92.96 76.22 105.78 C 77.84 118.60 74.36 132.61 85.00 141.00
M 128.00 69.00 
C 128.35 77.16 126.24 84.72 127.00 93.00
C 121.82 93.26 123.04 87.57 123.00 84.00
C 117.67 82.26 117.51 87.08 118.00 91.00
C 106.29 86.29 93.11 84.52 81.00 89.00
C 80.58 82.37 79.48 75.87 80.00 69.00
C 96.00 69.00 112.00 69.00 128.00 69.00
M 117.00 96.00 
C 116.96 107.49 116.13 118.77 115.00 130.00
C 123.82 132.14 120.23 122.29 121.78 116.78 C 123.33 111.26 120.67 103.41 123.00 98.00
C 129.26 100.54 124.63 112.60 125.00 119.00 C 125.37 125.40 125.74 136.06 116.99 135.99 C 108.25 135.93 100.11 136.02 91.00 136.00 C 81.89 135.98 83.43 126.13 83.00 119.00 C 82.57 111.87 81.73 102.31 81.00 95.00
C 92.47 89.95 105.65 92.03 117.00 96.00 Z"/>
</g>
<g fill="#000000" fill-opacity="0.00" stroke="None">
<path d="
M 128.00 69.00 
C 112.00 69.00 96.00 69.00 80.00 69.00
C 79.48 75.87 80.58 82.37 81.00 89.00
C 93.11 84.52 106.29 86.29 118.00 91.00
C 117.51 87.08 117.67 82.26 123.00 84.00
C 123.04 87.57 121.82 93.26 127.00 93.00
C 126.24 84.72 128.35 77.16 128.00 69.00
M 124.00 81.00 
C 111.24 81.59 126.02 68.02 124.00 81.00 Z"/>
</g>
<g fill="#FFFFFF" fill-opacity="0.68" stroke="None">
<path d="
M 124.00 81.00 
C 126.02 68.02 111.24 81.59 124.00 81.00 Z"/>
</g>
<g fill="#FFFFFF" fill-opacity="0.82" stroke="None">
<path d="
M 43.00 84.00 
C 14.23 78.85 4.12 122.74 33.33 129.67 C 62.54 136.60 72.15 89.22 43.00 84.00
M 44.00 90.00 
C 64.64 95.11 55.56 130.91 33.98 124.02 C 12.39 117.14 20.73 84.24 44.00 90.00 Z"/>
</g>
<g fill="#000000" fill-opacity="0.00" stroke="None">
<path d="
M 44.00 90.00 
C 20.73 84.24 12.39 117.14 33.98 124.02 C 55.56 130.91 64.64 95.11 44.00 90.00
M 39.00 94.00 
C 46.97 99.57 53.11 119.24 37.99 118.99 C 22.88 118.74 30.34 98.00 39.00 94.00 Z"/>
</g>
<g fill="#000000" fill-opacity="0.00" stroke="None">
<path d="
M 117.00 96.00 
C 105.65 92.03 92.47 89.95 81.00 95.00
C 81.73 102.31 82.57 111.87 83.00 119.00 C 83.43 126.13 81.89 135.98 91.00 136.00 C 100.11 136.02 108.25 135.93 116.99 135.99 C 125.74 136.06 125.37 125.40 125.00 119.00 C 124.63 112.60 129.26 100.54 123.00 98.00
C 120.67 103.41 123.33 111.26 121.78 116.78 C 120.23 122.29 123.82 132.14 115.00 130.00
C 116.13 118.77 116.96 107.49 117.00 96.00 Z"/>
</g>
<g fill="#FFFFFF" fill-opacity="0.81" stroke="None">
<path d="
M 39.00 94.00 
C 30.34 98.00 22.88 118.74 37.99 118.99 C 53.11 119.24 46.97 99.57 39.00 94.00
M 39.00 103.00 
C 42.77 105.79 43.18 114.87 37.00 113.00 C 30.81 111.12 36.36 104.59 39.00 103.00 Z"/>
</g>
<g fill="#000000" fill-opacity="0.00" stroke="None">
<path d="
M 39.00 103.00 
C 36.36 104.59 30.81 111.12 37.00 113.00 C 43.18 114.87 42.77 105.79 39.00 103.00 Z"/>
</g>
</svg>