<?xml version="1.0" encoding="UTF-8"?>
<!DOCTYPE svg PUBLIC "-//W3C//DTD SVG 1.1//EN" "http://www.w3.org/Graphics/SVG/1.1/DTD/svg11.dtd">
<svg xmlns="http://www.w3.org/2000/svg" version="1.1" width="140px" height="140px" style="shape-rendering:geometricPrecision; text-rendering:geometricPrecision; image-rendering:optimizeQuality; fill-rule:evenodd; clip-rule:evenodd" xmlns:xlink="http://www.w3.org/1999/xlink">
<g><path style="opacity:0.84" fill="#fefffe" d="M 46.5,-0.5 C 51.1667,-0.5 55.8333,-0.5 60.5,-0.5C 69.8258,2.83935 75.1592,9.50602 76.5,19.5C 94.5208,22.1884 101.687,32.5217 98,50.5C 96.123,54.928 93.2897,58.5947 89.5,61.5C 91.1838,72.9337 86.1838,78.767 74.5,79C 69.1132,83.9837 63.1132,84.8171 56.5,81.5C 56.1725,86.544 56.5059,91.544 57.5,96.5C 59.8167,94.7575 61.3167,92.4242 62,89.5C 66.3352,84.7122 71.3352,83.7122 77,86.5C 81.8447,85.498 86.3447,83.6646 90.5,81C 93.1667,80.6667 95.8333,80.3333 98.5,80C 104.554,74.0224 110.554,74.0224 116.5,80C 121.861,79.5994 126.527,81.0994 130.5,84.5C 132.197,88.7622 134.364,92.7622 137,96.5C 137.752,99.8936 137.585,103.227 136.5,106.5C 137.325,107.386 138.325,107.719 139.5,107.5C 139.5,114.833 139.5,122.167 139.5,129.5C 137.167,133.833 133.833,137.167 129.5,139.5C 106.167,139.5 82.8333,139.5 59.5,139.5C 53.6282,136.622 49.9615,131.955 48.5,125.5C 45.2152,124.676 41.8818,124.176 38.5,124C 34.959,123.291 32.959,121.124 32.5,117.5C 37.6079,104.101 38.6079,90.4347 35.5,76.5C 29.8135,84.4074 23.1469,85.4074 15.5,79.5C 8.33258,79.5871 2.99924,76.5871 -0.5,70.5C -0.5,66.8333 -0.5,63.1667 -0.5,59.5C 0.833333,58.5 0.833333,57.5 -0.5,56.5C -0.5,53.1667 -0.5,49.8333 -0.5,46.5C 1.02521,43.9627 2.69188,41.4627 4.5,39C 1.98063,29.7201 4.98063,22.8867 13.5,18.5C 14.9271,9.57208 20.0937,4.57208 29,3.5C 32.0729,3.5229 34.7396,4.5229 37,6.5C 39.7901,3.53498 42.9567,1.20165 46.5,-0.5 Z M 49.5,4.5 C 63.7996,4.12967 71.4662,11.1297 72.5,25.5C 82.5411,23.9395 89.3745,27.9395 93,37.5C 95.2182,47.5331 91.7182,54.6997 82.5,59C 84.934,62.716 85.1007,66.5493 83,70.5C 79.9534,73.4802 76.4534,74.1469 72.5,72.5C 70.7484,75.4165 68.2484,77.4165 65,78.5C 58.862,76.3998 57.362,72.5665 60.5,67C 62.6775,65.7978 65.0108,65.2978 67.5,65.5C 68.0629,63.09 68.5629,60.7567 69,58.5C 63.1485,55.1411 59.4818,50.1411 58,43.5C 56.6439,44.3802 55.1439,44.7135 53.5,44.5C 53.9124,50.8246 56.579,55.9913 61.5,60C 58.3333,61.8333 55.8333,64.3333 54,67.5C 49.6697,84.5767 50.1697,101.577 55.5,118.5C 49.8333,118.5 44.1667,118.5 38.5,118.5C 42.87,103.451 43.5367,88.2844 40.5,73C 44.7917,69.9153 47.1251,65.7486 47.5,60.5C 45.5,60.5 43.5,60.5 41.5,60.5C 39.6853,68.7185 35.0187,70.8852 27.5,67C 26.373,65.2467 25.373,63.4134 24.5,61.5C 22.9547,60.5481 21.288,60.2148 19.5,60.5C 19.6997,66.7104 22.6997,71.0437 28.5,73.5C 29.521,74.0016 29.6877,74.6683 29,75.5C 26.5808,78.6376 23.7475,79.1376 20.5,77C 19.3304,72.8241 16.8304,71.6574 13,73.5C 4.24489,70.8191 2.41156,65.6524 7.5,58C 4.23056,54.5469 3.73056,50.7135 6,46.5C 8.03675,44.5643 10.2034,42.8976 12.5,41.5C 6.24349,31.5728 8.91015,25.2394 20.5,22.5C 19.6389,11.1588 24.3055,7.32547 34.5,11C 35.7014,11.9025 36.5348,13.0692 37,14.5C 40.5119,10.1341 44.6786,6.80079 49.5,4.5 Z M 105.5,81.5 C 107.591,81.3184 109.591,81.6518 111.5,82.5C 112.833,84.5 114.167,86.5 115.5,88.5C 123.418,83.628 127.751,85.9614 128.5,95.5C 133.771,99.2369 133.771,103.07 128.5,107C 105.169,107.5 81.8357,107.667 58.5,107.5C 58.0659,102.352 60.3992,99.6849 65.5,99.5C 65.4813,90.6734 69.3146,88.34 77,92.5C 80.0338,90.5232 83.2005,90.1899 86.5,91.5C 90.0919,85.1002 94.7585,84.1002 100.5,88.5C 101.463,85.5414 103.129,83.2081 105.5,81.5 Z M 59.5,113.5 C 84.3278,112.502 109.328,112.169 134.5,112.5C 134.666,117.179 134.499,121.845 134,126.5C 133.31,129.196 131.81,131.363 129.5,133C 117.734,134.136 105.901,134.636 94,134.5C 82.4072,134.647 70.9072,134.147 59.5,133C 57.0424,131.213 55.3758,128.879 54.5,126C 56.4428,124.333 58.2761,122.5 60,120.5C 60.7958,117.961 60.6291,115.628 59.5,113.5 Z"/></g>
<g><path style="opacity:0.809" fill="#fefffe" d="M 53.5,10.5 C 55.1667,10.5 56.8333,10.5 58.5,10.5C 58.5,12.1667 58.5,13.8333 58.5,15.5C 56.8333,15.5 55.1667,15.5 53.5,15.5C 53.5,13.8333 53.5,12.1667 53.5,10.5 Z"/></g>
<g><path style="opacity:0.694" fill="#fefffe" d="M 26.5,14.5 C 28.1667,14.5 29.8333,14.5 31.5,14.5C 31.5,16.5 31.5,18.5 31.5,20.5C 29.8333,20.5 28.1667,20.5 26.5,20.5C 26.5,18.5 26.5,16.5 26.5,14.5 Z"/></g>
<g><path style="opacity:0.792" fill="#fefffe" d="M 40.5,19.5 C 42.1667,19.5 43.8333,19.5 45.5,19.5C 45.5,21.1667 45.5,22.8333 45.5,24.5C 41.862,24.7377 39.0287,26.4044 37,29.5C 36.9937,39.1407 32.6604,45.8073 24,49.5C 23.2189,48.2713 22.7189,46.938 22.5,45.5C 24.4888,43.4023 26.6554,41.4023 29,39.5C 29.0425,30.4367 32.8758,23.7701 40.5,19.5 Z"/></g>
<g><path style="opacity:0.675" fill="#fefffe" d="M 17.5,30.5 C 19.1667,30.5 20.8333,30.5 22.5,30.5C 22.5,32.5 22.5,34.5 22.5,36.5C 20.8333,36.5 19.1667,36.5 17.5,36.5C 17.5,34.5 17.5,32.5 17.5,30.5 Z"/></g>
<g><path style="opacity:0.676" fill="#fefffe" d="M 60.5,30.5 C 62.1667,30.5 63.8333,30.5 65.5,30.5C 65.5,32.5 65.5,34.5 65.5,36.5C 63.8333,36.5 62.1667,36.5 60.5,36.5C 60.5,34.5 60.5,32.5 60.5,30.5 Z"/></g>
<g><path style="opacity:0.81" fill="#fefffe" d="M 78.5,37.5 C 80.1667,37.5 81.8333,37.5 83.5,37.5C 83.5,39.1667 83.5,40.8333 83.5,42.5C 81.8333,42.5 80.1667,42.5 78.5,42.5C 78.5,40.8333 78.5,39.1667 78.5,37.5 Z"/></g>
<g><path style="opacity:0.579" fill="#fefffe" d="M 42.5,41.5 C 44.1667,41.5 45.8333,41.5 47.5,41.5C 47.5,43.5 47.5,45.5 47.5,47.5C 45.5,47.5 43.5,47.5 41.5,47.5C 41.3253,45.3792 41.6586,43.3792 42.5,41.5 Z"/></g>
<g><path style="opacity:0.579" fill="#fefffe" d="M 30.5,57.5 C 32.5,57.5 34.5,57.5 36.5,57.5C 37.5,62.5 35.5,64.5 30.5,63.5C 30.5,61.5 30.5,59.5 30.5,57.5 Z"/></g>
<g><path style="opacity:0.809" fill="#fefffe" d="M 10.5,62.5 C 12.1667,62.5 13.8333,62.5 15.5,62.5C 15.5,64.1667 15.5,65.8333 15.5,67.5C 13.8333,67.5 12.1667,67.5 10.5,67.5C 10.5,65.8333 10.5,64.1667 10.5,62.5 Z"/></g>
<g><path style="opacity:0.81" fill="#fefffe" d="M 73.5,62.5 C 75.1667,62.5 76.8333,62.5 78.5,62.5C 78.5,64.1667 78.5,65.8333 78.5,67.5C 76.8333,67.5 75.1667,67.5 73.5,67.5C 73.5,65.8333 73.5,64.1667 73.5,62.5 Z"/></g>
<g><path style="opacity:0.694" fill="#fefffe" d="M 105.5,84.5 C 107.167,84.5 108.833,84.5 110.5,84.5C 110.5,86.5 110.5,88.5 110.5,90.5C 108.833,90.5 107.167,90.5 105.5,90.5C 105.5,88.5 105.5,86.5 105.5,84.5 Z"/></g>
<g><path style="opacity:0.676" fill="#fefffe" d="M 69.5,93.5 C 71.1667,93.5 72.8333,93.5 74.5,93.5C 74.5,95.5 74.5,97.5 74.5,99.5C 72.8333,99.5 71.1667,99.5 69.5,99.5C 69.5,97.5 69.5,95.5 69.5,93.5 Z"/></g>
<g><path style="opacity:0.807" fill="#fefffe" d="M 88.5,95.5 C 90.6704,96.7485 93.0037,97.7485 95.5,98.5C 100.891,95.6971 103.891,97.3638 104.5,103.5C 97.5785,103.178 90.7452,103.178 84,103.5C 82.5,103.167 81,102.833 79.5,102.5C 80.2458,101.264 80.5792,99.9305 80.5,98.5C 83.8306,98.9819 86.4973,97.9819 88.5,95.5 Z"/></g>
<g><path style="opacity:0.694" fill="#fefffe" d="M 118.5,98.5 C 120.5,98.5 122.5,98.5 124.5,98.5C 124.5,100.167 124.5,101.833 124.5,103.5C 122.5,103.5 120.5,103.5 118.5,103.5C 118.5,101.833 118.5,100.167 118.5,98.5 Z"/></g>
</svg>
